{
  "accessors": [
    {
      "bufferView": 2,
      "componentType": 5126,
      "count": 12358,
      "max": [
        0.7242227792739868,
        0.16494570672512054,
        0.626967191696167
      ],
      "min": [
        -0.7242227792739868,
        -0.15176831185817719,
        -1.0070812702178955
      ],
      "type": "VEC3"
    },
    {
      "bufferView": 2,
      "byteOffset": 148296,
      "componentType": 5126,
      "count": 12358,
      "max": [
        0.9996324181556702,
        0.9999904632568359,
        0.998550295829773
      ],
      "min": [
        -0.9996324181556702,
        -0.9999887943267822,
        -0.9999467730522156
      ],
      "type": "VEC3"
    },
    {
      "bufferView": 3,
      "componentType": 5126,
      "count": 12358,
      "max": [
        0.9999886155128479,
        0.999999463558197,
        0.997355043888092,
        1.0
      ],
      "min": [
        -0.9999858140945435,
        -0.999996542930603,
        -0.9986659288406372,
        -1.0
      ],
      "type": "VEC4"
    },
    {
      "bufferView": 1,
      "componentType": 5126,
      "count": 12358,
      "max": [
        0.9989092350006104,
        0.9611825942993164
      ],
      "min": [
        0.0010907948017120361,
        0.0010907649993896484
      ],
      "type": "VEC2"
    },
    {
      "bufferView": 1,
      "byteOffset": 98864,
      "componentType": 5126,
      "count": 12358,
      "max": [
        0.9989092350006104,
        0.9611825942993164
      ],
      "min": [
        0.0010907948017120361,
        0.0010907649993896484
      ],
      "type": "VEC2"
    },
    {
      "bufferView": 0,
      "componentType": 5125,
      "count": 48456,
      "type": "SCALAR"
    },
    {
      "bufferView": 2,
      "byteOffset": 296592,
      "componentType": 5126,
      "count": 4907,
      "max": [
        0.12420663982629776,
        0.11322295665740967,
        0.8360751867294312
      ],
      "min": [
        -0.12420663982629776,
        -0.16969998180866241,
        0.5680214762687683
      ],
      "type": "VEC3"
    },
    {
      "bufferView": 2,
      "byteOffset": 355476,
      "componentType": 5126,
      "count": 4907,
      "max": [
        0.9999980926513672,
        1.0,
        1.0
      ],
      "min": [
        -0.9999980926513672,
        -0.9999997615814209,
        -1.0
      ],
      "type": "VEC3"
    },
    {
      "bufferView": 3,
      "byteOffset": 197728,
      "componentType": 5126,
      "count": 4907,
      "max": [
        1.0,
        0.9999127388000488,
        0.9999994039535522,
        1.0
      ],
      "min": [
        -1.0,
        -0.9999801516532898,
        -0.9997825026512146,
        -1.0
      ],
      "type": "VEC4"
    },
    {
      "bufferView": 1,
      "byteOffset": 197728,
      "componentType": 5126,
      "count": 4907,
      "max": [
        0.9980880618095398,
        0.9976087212562561
      ],
      "min": [
        0.0019119679927825928,
        0.0019119679927825928
      ],
      "type": "VEC2"
    },
    {
      "bufferView": 1,
      "byteOffset": 236984,
      "componentType": 5126,
      "count": 4907,
      "max": [
        0.9980880618095398,
        0.9976087212562561
      ],
      "min": [
        0.0019119679927825928,
        0.0019119679927825928
      ],
      "type": "VEC2"
    },
    {
      "bufferView": 0,
      "byteOffset": 193824,
      "componentType": 5125,
      "count": 14865,
      "type": "SCALAR"
    },
    {
      "bufferView": 2,
      "byteOffset": 414360,
      "componentType": 5126,
      "count": 192,
      "max": [
        0.11310876160860062,
        -0.06734884530305862,
        0.7388848066329956
      ],
      "min": [
        -0.11310876160860062,
        -0.0700162947177887,
        0.7178218960762024
      ],
      "type": "VEC3"
    },
    {
      "bufferView": 2,
      "byteOffset": 416664,
      "componentType": 5126,
      "count": 192,
      "max": [
        0.547482430934906,
        -0.8326618671417236,
        0.5338141918182373
      ],
      "min": [
        -0.547482430934906,
        -0.9888415336608887,
        -0.5327433943748474
      ],
      "type": "VEC3"
    },
    {
      "bufferView": 1,
      "byteOffset": 276240,
      "componentType": 5126,
      "count": 192,
      "max": [
        0.8361858129501343,
        0.5593331456184387
      ],
      "min": [
        0.777643084526062,
        0.5301036834716797
      ],
      "type": "VEC2"
    },
    {
      "bufferView": 0,
      "byteOffset": 253284,
      "componentType": 5125,
      "count": 948,
      "type": "SCALAR"
    },
    {
      "bufferView": 2,
      "byteOffset": 418968,
      "componentType": 5126,
      "count": 17056,
      "max": [
        0.6646702885627747,
        0.21002937853336334,
        0.627426028251648
      ],
      "min": [
        -0.6646702885627747,
        -0.15391263365745544,
        -0.17367923259735107
      ],
      "type": "VEC3"
    },
    {
      "bufferView": 2,
      "byteOffset": 623640,
      "componentType": 5126,
      "count": 17056,
      "max": [
        1.0,
        1.0,
        0.9999983310699463
      ],
      "min": [
        -1.0,
        -0.9999704360961914,
        -1.0
      ],
      "type": "VEC3"
    },
    {
      "bufferView": 3,
      "byteOffset": 276240,
      "componentType": 5126,
      "count": 17056,
      "max": [
        1.0,
        1.0,
        1.0,
        1.0
      ],
      "min": [
        -1.0,
        -1.0,
        -0.9999645948410034,
        -1.0
      ],
      "type": "VEC4"
    },
    {
      "bufferView": 1,
      "byteOffset": 277776,
      "componentType": 5126,
      "count": 17056,
      "max": [
        0.9960463643074036,
        0.9966014623641968
      ],
      "min": [
        0.003398476168513298,
        0.003398476168513298
      ],
      "type": "VEC2"
    },
    {
      "bufferView": 1,
      "byteOffset": 414224,
      "componentType": 5126,
      "count": 17056,
      "max": [
        1.0,
        1.0069750547409058
      ],
      "min": [
        0.0,
        -0.002384180435910821
      ],
      "type": "VEC2"
    },
    {
      "bufferView": 1,
      "byteOffset": 550672,
      "componentType": 5126,
      "count": 17056,
      "max": [
        0.9960463643074036,
        0.9966014623641968
      ],
      "min": [
        0.003398476168513298,
        0.003398476168513298
      ],
      "type": "VEC2"
    },
    {
      "bufferView": 0,
      "byteOffset": 257076,
      "componentType": 5125,
      "count": 54828,
      "type": "SCALAR"
    },
    {
      "bufferView": 2,
      "byteOffset": 828312,
      "componentType": 5126,
      "count": 9571,
      "max": [
        0.25418493151664734,
        0.21136456727981567,
        0.12948939204216003
      ],
      "min": [
        -0.25418493151664734,
        -0.17711994051933289,
        -1.0168555974960327
      ],
      "type": "VEC3"
    },
    {
      "bufferView": 2,
      "byteOffset": 943164,
      "componentType": 5126,
      "count": 9571,
      "max": [
        0.9998335242271423,
        0.9999966621398926,
        1.0
      ],
      "min": [
        -1.0,
        -0.9999966621398926,
        -0.9999994039535522
      ],
      "type": "VEC3"
    },
    {
      "bufferView": 3,
      "byteOffset": 549136,
      "componentType": 5126,
      "count": 9571,
      "max": [
        1.0,
        1.0,
        0.9999923706054688,
        1.0
      ],
      "min": [
        -0.9999117851257324,
        -1.0,
        -0.9999911785125732,
        -1.0
      ],
      "type": "VEC4"
    },
    {
      "bufferView": 1,
      "byteOffset": 687120,
      "componentType": 5126,
      "count": 9571,
      "max": [
        0.9966129064559937,
        0.996549129486084
      ],
      "min": [
        0.003386974334716797,
        0.003386974334716797
      ],
      "type": "VEC2"
    },
    {
      "bufferView": 1,
      "byteOffset": 763688,
      "componentType": 5126,
      "count": 9571,
      "max": [
        0.29987698793411255,
        0.536329984664917
      ],
      "min": [
        0.0,
        0.0
      ],
      "type": "VEC2"
    },
    {
      "bufferView": 1,
      "byteOffset": 840256,
      "componentType": 5126,
      "count": 9571,
      "max": [
        0.9966129064559937,
        0.996549129486084
      ],
      "min": [
        0.003386974334716797,
        0.003386974334716797
      ],
      "type": "VEC2"
    },
    {
      "bufferView": 0,
      "byteOffset": 476388,
      "componentType": 5125,
      "count": 25758,
      "type": "SCALAR"
    }
  ],
  "asset": {
    "extras": {
      "author": "Outworld Studios (https://sketchfab.com/outworldstudios)",
      "license": "CC-BY-SA-4.0 (http://creativecommons.org/licenses/by-sa/4.0/)",
      "source": "https://sketchfab.com/3d-models/starship-troopers-armor-0da77e1d1daf44b4aeafd59fb8352f93",
      "title": "Starship Troopers Armor"
    },
    "generator": "Sketchfab-15.12.0",
    "version": "2.0"
  },
  "bufferViews": [
    {
      "buffer": 0,
      "byteLength": 579420,
      "name": "floatBufferViews",
      "target": 34963
    },
    {
      "buffer": 0,
      "byteLength": 916824,
      "byteOffset": 579420,
      "byteStride": 8,
      "name": "floatBufferViews",
      "target": 34962
    },
    {
      "buffer": 0,
      "byteLength": 1058016,
      "byteOffset": 1496244,
      "byteStride": 12,
      "name": "floatBufferViews",
      "target": 34962
    },
    {
      "buffer": 0,
      "byteLength": 702272,
      "byteOffset": 2554260,
      "byteStride": 16,
      "name": "floatBufferViews",
      "target": 34962
    }
  ],
  "buffers": [
    {
      "byteLength": 3256532,
      "uri": "scene.bin"
    }
  ],
  "extensionsUsed": [
    "KHR_materials_specular"
  ],
  "images": [
    {
      "uri": "textures/A.003_baseColor.png"
    },
    {
      "uri": "textures/A.003_metallicRoughness.png"
    },
    {
      "uri": "textures/A.003_normal.png"
    },
    {
      "uri": "textures/A.003_specularf0.png"
    },
    {
      "uri": "textures/material_baseColor.png"
    },
    {
      "uri": "textures/material_metallicRoughness.png"
    },
    {
      "uri": "textures/material_normal.png"
    },
    {
      "uri": "textures/material_specularf0.png"
    },
    {
      "uri": "textures/A.001_baseColor.png"
    },
    {
      "uri": "textures/A.001_metallicRoughness.png"
    },
    {
      "uri": "textures/A.001_normal.png"
    },
    {
      "uri": "textures/A.001_specularf0.png"
    },
    {
      "uri": "textures/A.002_baseColor.png"
    },
    {
      "uri": "textures/A.002_metallicRoughness.png"
    },
    {
      "uri": "textures/A.002_normal.png"
    },
    {
      "uri": "textures/A.002_specularf0.png"
    }
  ],
  "materials": [
    {
      "doubleSided": true,
      "extensions": {
        "KHR_materials_specular": {
          "specularColorFactor": [
            1.0,
            1.0,
            1.0
          ],
          "specularFactor": 1.0,
          "specularTexture": {
            "index": 3
          }
        }
      },
      "name": "A.003",
      "normalTexture": {
        "index": 2
      },
      "occlusionTexture": {
        "index": 1
      },
      "pbrMetallicRoughness": {
        "baseColorTexture": {
          "index": 0
        },
        "metallicFactor": 0.0,
        "metallicRoughnessTexture": {
          "index": 1
        }
      }
    },
    {
      "doubleSided": true,
      "extensions": {
        "KHR_materials_specular": {
          "specularColorFactor": [
            1.0,
            1.0,
            1.0
          ],
          "specularFactor": 1.0,
          "specularTexture": {
            "index": 7
          }
        }
      },
      "name": "material",
      "normalTexture": {
        "index": 6
      },
      "occlusionTexture": {
        "index": 5
      },
      "pbrMetallicRoughness": {
        "baseColorTexture": {
          "index": 4
        },
        "metallicFactor": 0.0,
        "metallicRoughnessTexture": {
          "index": 5
        }
      }
    },
    {
      "doubleSided": true,
      "name": "Material",
      "pbrMetallicRoughness": {
        "baseColorFactor": [
          0.8,
          0.8,
          0.8,
          1.0
        ],
        "metallicFactor": 0.0,
        "roughnessFactor": 0.8040408205773457
      }
    },
    {
      "doubleSided": true,
      "extensions": {
        "KHR_materials_specular": {
          "specularColorFactor": [
            1.0,
            1.0,
            1.0
          ],
          "specularFactor": 1.0,
          "specularTexture": {
            "index": 11
          }
        }
      },
      "name": "A.001",
      "normalTexture": {
        "index": 10
      },
      "occlusionTexture": {
        "index": 9
      },
      "pbrMetallicRoughness": {
        "baseColorTexture": {
          "index": 8
        },
        "metallicFactor": 0.0,
        "metallicRoughnessTexture": {
          "index": 9
        }
      }
    },
    {
      "doubleSided": true,
      "extensions": {
        "KHR_materials_specular": {
          "specularColorFactor": [
            1.0,
            1.0,
            1.0
          ],
          "specularFactor": 1.0,
          "specularTexture": {
            "index": 15
          }
        }
      },
      "name": "A.002",
      "normalTexture": {
        "index": 14
      },
      "occlusionTexture": {
        "index": 13
      },
      "pbrMetallicRoughness": {
        "baseColorTexture": {
          "index": 12
        },
        "metallicFactor": 0.0,
        "metallicRoughnessTexture": {
          "index": 13
        }
      }
    }
  ],
  "meshes": [
    {
      "name": "starshiptrooperMesh_A.003_0",
      "primitives": [
        {
          "attributes": {
            "NORMAL": 1,
            "POSITION": 0,
            "TANGENT": 2,
            "TEXCOORD_0": 3,
            "TEXCOORD_1": 4
          },
          "indices": 5,
          "material": 0,
          "mode": 4
        }
      ]
    },
    {
      "name": "Plane_A_0",
      "primitives": [
        {
          "attributes": {
            "NORMAL": 7,
            "POSITION": 6,
            "TANGENT": 8,
            "TEXCOORD_0": 9,
            "TEXCOORD_1": 10
          },
          "indices": 11,
          "material": 1,
          "mode": 4
        }
      ]
    },
    {
      "name": "Plane_Material_0",
      "primitives": [
        {
          "attributes": {
            "NORMAL": 13,
            "POSITION": 12,
            "TEXCOORD_0": 14
          },
          "indices": 15,
          "material": 2,
          "mode": 4
        }
      ]
    },
    {
      "name": "starshiptrooperMesh.002_A.001_0",
      "primitives": [
        {
          "attributes": {
            "NORMAL": 17,
            "POSITION": 16,
            "TANGENT": 18,
            "TEXCOORD_0": 19,
            "TEXCOORD_1": 20,
            "TEXCOORD_2": 21
          },
          "indices": 22,
          "material": 3,
          "mode": 4
        }
      ]
    },
    {
      "name": "Cube.016_A.002_0",
      "primitives": [
        {
          "attributes": {
            "NORMAL": 24,
            "POSITION": 23,
            "TANGENT": 25,
            "TEXCOORD_0": 26,
            "TEXCOORD_1": 27,
            "TEXCOORD_2": 28
          },
          "indices": 29,
          "material": 4,
          "mode": 4
        }
      ]
    }
  ],
  "nodes": [
    {
      "children": [
        1
      ],
      "matrix": [
        1.0,
        0.0,
        0.0,
        0.0,
        0.0,
        2.220446049250313e-16,
        -1.0,
        0.0,
        0.0,
        1.0,
        2.220446049250313e-16,
        0.0,
        0.0,
        0.0,
        0.0,
        1.0
      ],
      "name": "Sketchfab_model"
    },
    {
      "children": [
        2
      ],
      "matrix": [
        0.009999999776482582,
        0.0,
        0.0,
        0.0,
        0.0,
        0.0,
        0.009999999776482582,
        0.0,
        0.0,
        -0.009999999776482582,
        0.0,
        0.0,
        0.0,
        0.0,
        0.0,
        1.0
      ],
      "name": "896cf26bc5b24aad990b4e5f5dbc21dd.fbx"
    },
    {
      "children": [
        3,
        6,
        8,
        11,
        13
      ],
      "name": "RootNode"
    },
    {
      "children": [
        4
      ],
      "matrix": [
        -29.08647719990347,
        -5.518906457566863,
        -95.51711910171437,
        0.0,
        56.63930913109449,
        79.46723428563203,
        -21.83912397841966,
        0.0,
        77.11008775993375,
        -60.45246356562044,
        -19.98834696773717,
        0.0,
        407.6245422363281,
        590.38623046875,
        -100.54539489746094,
        1.0
      ],
      "name": "Light"
    },
    {
      "children": [
        5
      ],
      "matrix": [
        1.0,
        0.0,
        0.0,
        0.0,
        0.0,
        2.220446049250313e-16,
        1.0,
        0.0,
        0.0,
        -1.0,
        2.220446049250313e-16,
        0.0,
        0.0,
        0.0,
        0.0,
        1.0
      ],
      "name": "Object_4"
    },
    {
      "name": "Object_5"
    },
    {
      "children": [
        7
      ],
      "matrix": [
        100.0,
        0.0,
        0.0,
        0.0,
        0.0,
        -1.629206793918314e-05,
        -99.99999999999868,
        0.0,
        0.0,
        99.99999999999868,
        -1.629206793918314e-05,
        0.0,
        0.0,
        0.0,
        0.0,
        1.0
      ],
      "name": "starshiptrooperMesh"
    },
    {
      "mesh": 0,
      "name": "starshiptrooperMesh_A.003_0"
    },
    {
      "children": [
        9,
        10
      ],
      "matrix": [
        100.0,
        0.0,
        0.0,
        0.0,
        0.0,
        -1.629206793918314e-05,
        -99.99999999999868,
        0.0,
        0.0,
        99.99999999999868,
        -1.629206793918314e-05,
        0.0,
        0.0,
        0.0,
        0.0,
        1.0
      ],
      "name": "Plane"
    },
    {
      "mesh": 1,
      "name": "Plane_A_0"
    },
    {
      "mesh": 2,
      "name": "Plane_Material_0"
    },
    {
      "children": [
        12
      ],
      "matrix": [
        100.0,
        0.0,
        0.0,
        0.0,
        0.0,
        -1.629206793918314e-05,
        -99.99999999999868,
        0.0,
        0.0,
        99.99999999999868,
        -1.629206793918314e-05,
        0.0,
        0.0,
        0.0,
        0.0,
        1.0
      ],
      "name": "starshiptrooperMesh.002"
    },
    {
      "mesh": 3,
      "name": "starshiptrooperMesh.002_A.001_0"
    },
    {
      "children": [
        14
      ],
      "matrix": [
        100.0,
        0.0,
        0.0,
        0.0,
        0.0,
        -1.629206793918314e-05,
        -99.99999999999868,
        0.0,
        0.0,
        99.99999999999868,
        -1.629206793918314e-05,
        0.0,
        0.0,
        0.0,
        0.0,
        1.0
      ],
      "name": "Cube.016"
    },
    {
      "mesh": 4,
      "name": "Cube.016_A.002_0"
    }
  ],
  "samplers": [
    {
      "magFilter": 9729,
      "minFilter": 9987,
      "wrapS": 10497,
      "wrapT": 10497
    }
  ],
  "scene": 0,
  "scenes": [
    {
      "name": "Sketchfab_Scene",
      "nodes": [
        0
      ]
    }
  ],
  "textures": [
    {
      "sampler": 0,
      "source": 0
    },
    {
      "sampler": 0,
      "source": 1
    },
    {
      "sampler": 0,
      "source": 2
    },
    {
      "sampler": 0,
      "source": 3
    },
    {
      "sampler": 0,
      "source": 4
    },
    {
      "sampler": 0,
      "source": 5
    },
    {
      "sampler": 0,
      "source": 6
    },
    {
      "sampler": 0,
      "source": 7
    },
    {
      "sampler": 0,
      "source": 8
    },
    {
      "sampler": 0,
      "source": 9
    },
    {
      "sampler": 0,
      "source": 10
    },
    {
      "sampler": 0,
      "source": 11
    },
    {
      "sampler": 0,
      "source": 12
    },
    {
      "sampler": 0,
      "source": 13
    },
    {
      "sampler": 0,
      "source": 14
    },
    {
      "sampler": 0,
      "source": 15
    }
  ]
}
